<?xml version="1.0" encoding="UTF-8" standalone="no"?>
<!DOCTYPE svg PUBLIC "-//W3C//DTD SVG 1.1//EN" "http://www.w3.org/Graphics/SVG/1.1/DTD/svg11.dtd">
<svg width="100%" height="100%" viewBox="0 0 24 24" version="1.1" xmlns="http://www.w3.org/2000/svg" xmlns:xlink="http://www.w3.org/1999/xlink" xml:space="preserve" xmlns:serif="http://www.serif.com/" style="fill-rule:evenodd;clip-rule:evenodd;stroke-linejoin:round;stroke-miterlimit:2;">
    <path d="M5.844,19.558C5.063,19.558 4.401,19.285 3.856,18.739C3.311,18.193 3.038,17.53 3.038,16.75L1.346,16.75L1.346,6.308C1.346,5.803 1.521,5.375 1.871,5.025C2.221,4.675 2.649,4.5 3.154,4.5L16.769,4.5L16.769,8.308L19.423,8.308L22.654,12.635L22.654,16.75L20.846,16.75C20.846,17.53 20.573,18.193 20.027,18.739C19.48,19.285 18.817,19.558 18.036,19.558C17.256,19.558 16.593,19.285 16.048,18.739C15.503,18.193 15.231,17.53 15.231,16.75L8.654,16.75C8.654,17.532 8.381,18.195 7.834,18.74C7.288,19.285 6.624,19.558 5.844,19.558ZM5.846,18.058C6.213,18.058 6.522,17.931 6.775,17.679C7.028,17.426 7.154,17.117 7.154,16.75C7.154,16.383 7.028,16.074 6.775,15.821C6.522,15.569 6.213,15.442 5.846,15.442C5.479,15.442 5.17,15.569 4.917,15.821C4.665,16.074 4.538,16.383 4.538,16.75C4.538,17.117 4.665,17.426 4.917,17.679C5.17,17.931 5.479,18.058 5.846,18.058ZM2.846,15.25L3.569,15.25C3.782,14.88 4.089,14.569 4.491,14.318C4.893,14.068 5.345,13.942 5.846,13.942C6.335,13.942 6.783,14.066 7.191,14.313C7.6,14.561 7.91,14.873 8.123,15.25L15.269,15.25L15.269,6L3.154,6C3.077,6 3.006,6.032 2.942,6.096C2.878,6.16 2.846,6.231 2.846,6.308L2.846,15.25ZM18.038,18.058C18.405,18.058 18.715,17.931 18.967,17.679C19.22,17.426 19.346,17.117 19.346,16.75C19.346,16.383 19.22,16.074 18.967,15.821C18.715,15.569 18.405,15.442 18.038,15.442C17.672,15.442 17.362,15.569 17.11,15.821C16.857,16.074 16.731,16.383 16.731,16.75C16.731,17.117 16.857,17.426 17.11,17.679C17.362,17.931 17.672,18.058 18.038,18.058ZM16.769,13.25L21.25,13.25L18.654,9.808L16.769,9.808L16.769,13.25Z" style="fill:rgb(255,128,0);fill-rule:nonzero;"/>
    <g id="restaurant_FILL0_wght400_GRAD0_opsz24.svg" transform="matrix(0.416667,0,0,0.416667,8.97582,11.5)">
        <g transform="matrix(1,0,0,1,-12,-12)">
            <path d="M7,22L7,12.85C6.15,12.617 5.438,12.15 4.863,11.45C4.288,10.75 4,9.933 4,9L4,2L6,2L6,9L7,9L7,2L9,2L9,9L10,9L10,2L12,2L12,9C12,9.933 11.713,10.75 11.138,11.45C10.563,12.15 9.85,12.617 9,12.85L9,22L7,22ZM17,22L17,14L14,14L14,7C14,5.617 14.488,4.438 15.463,3.462C16.438,2.487 17.617,2 19,2L19,22L17,22Z" style="fill:rgb(255,128,0);fill-rule:nonzero;"/>
        </g>
    </g>
</svg>
